<svg width="375" height="372" viewBox="0 0 375 372" fill="none" xmlns="http://www.w3.org/2000/svg">
<path opacity="0.15" d="M-93.5329 65.4942C-73.2057 15.9884 -16.5949 -7.6656 32.911 12.6616C82.4168 32.9887 106.071 89.5996 85.7436 139.105C65.4164 188.611 8.80558 212.265 -40.7002 191.938C-90.2061 171.611 -113.86 115 -93.5329 65.4942ZM69.6053 132.479C86.2728 91.8861 66.8775 45.4674 26.2846 28.7999C-14.3083 12.1323 -60.7271 31.5277 -77.3946 72.1206C-94.0621 112.714 -74.6668 159.132 -34.0738 175.8C6.51906 192.467 52.9378 173.072 69.6053 132.479Z" fill="url(#paint0_linear_11_17673)" fill-opacity="0.9"/>
<path opacity="0.15" d="M49.6206 -4.38689C115.008 22.4613 146.25 97.2332 119.402 162.621C92.5539 228.008 17.782 259.25 -47.6055 232.402C-112.993 205.554 -144.235 130.782 -117.387 65.3946C-90.5388 0.00714254 -15.7669 -31.2351 49.6206 -4.38689ZM-38.8533 211.087C14.762 233.101 76.0721 207.484 98.0866 153.868C120.101 100.253 94.4837 38.9431 40.8684 16.9286C-12.7469 -5.08592 -74.057 20.5315 -96.0715 74.1468C-118.086 127.762 -92.4686 189.072 -38.8533 211.087Z" fill="url(#paint1_linear_11_17673)" fill-opacity="0.9"/>
<circle opacity="0.15" cx="1.00761" cy="114.008" r="65.7513" transform="rotate(-67.6769 1.00761 114.008)" fill="url(#paint2_linear_11_17673)" fill-opacity="0.9"/>
<path opacity="0.15" d="M234.293 57.1424C249.242 20.735 290.875 3.33946 327.282 18.2884C363.69 33.2373 381.085 74.8698 366.136 111.277C351.187 147.685 309.555 165.08 273.147 150.131C236.74 135.182 219.345 93.5497 234.293 57.1424ZM354.268 106.404C366.525 76.5514 352.262 42.4143 322.409 30.1567C292.556 17.8992 258.419 32.1628 246.162 62.0155C233.904 91.8682 248.168 126.005 278.021 138.263C307.873 150.52 342.01 136.257 354.268 106.404Z" fill="url(#paint3_linear_11_17673)" fill-opacity="0.9"/>
<path opacity="0.15" d="M339.571 5.75074C387.658 25.4954 410.634 80.4838 390.889 128.571C371.145 176.658 316.156 199.634 268.069 179.889C219.982 160.145 197.006 105.156 216.751 57.0692C236.495 8.98219 291.484 -13.9939 339.571 5.75074ZM274.506 164.213C313.935 180.403 359.024 161.564 375.214 122.134C391.403 82.7047 372.564 37.6163 333.134 21.4265C293.705 5.23666 248.616 24.0761 232.427 63.5057C216.237 102.935 235.076 148.024 274.506 164.213Z" fill="url(#paint4_linear_11_17673)" fill-opacity="0.9"/>
<circle opacity="0.15" cx="303.82" cy="92.82" r="48.3545" transform="rotate(-67.6769 303.82 92.82)" fill="url(#paint5_linear_11_17673)" fill-opacity="0.9"/>
<defs>
<linearGradient id="paint0_linear_11_17673" x1="-30.7748" y1="215.692" x2="42.8364" y2="36.4155" gradientUnits="userSpaceOnUse">
<stop stop-color="white" stop-opacity="0"/>
<stop offset="0.497674" stop-color="white" stop-opacity="0.8"/>
<stop offset="1" stop-color="white" stop-opacity="0"/>
</linearGradient>
<linearGradient id="paint1_linear_11_17673" x1="-125.12" y1="152.913" x2="133.322" y2="58.6761" gradientUnits="userSpaceOnUse">
<stop stop-color="white" stop-opacity="0"/>
<stop offset="0.497674" stop-color="white" stop-opacity="0.8"/>
<stop offset="1" stop-color="white" stop-opacity="0"/>
</linearGradient>
<linearGradient id="paint2_linear_11_17673" x1="1.00761" y1="48.2565" x2="1.00761" y2="179.759" gradientUnits="userSpaceOnUse">
<stop stop-color="white" stop-opacity="0"/>
<stop offset="0.497674" stop-color="#955914" stop-opacity="0.8"/>
<stop offset="1" stop-color="#AD5E25" stop-opacity="0"/>
</linearGradient>
<linearGradient id="paint3_linear_11_17673" x1="280.447" y1="167.6" x2="334.582" y2="35.7574" gradientUnits="userSpaceOnUse">
<stop stop-color="white" stop-opacity="0"/>
<stop offset="0.497674" stop-color="white" stop-opacity="0.8"/>
<stop offset="1" stop-color="white" stop-opacity="0"/>
</linearGradient>
<linearGradient id="paint4_linear_11_17673" x1="211.064" y1="121.432" x2="401.126" y2="52.1283" gradientUnits="userSpaceOnUse">
<stop stop-color="white" stop-opacity="0"/>
<stop offset="0.497674" stop-color="white" stop-opacity="0.8"/>
<stop offset="1" stop-color="white" stop-opacity="0"/>
</linearGradient>
<linearGradient id="paint5_linear_11_17673" x1="303.82" y1="44.4655" x2="303.82" y2="141.175" gradientUnits="userSpaceOnUse">
<stop stop-color="white" stop-opacity="0"/>
<stop offset="0.497674" stop-color="#888888" stop-opacity="0.8"/>
<stop offset="1" stop-color="#7D7D7D" stop-opacity="0"/>
</linearGradient>
</defs>
</svg>
