<svg width="113" height="140" viewBox="0 0 113 140" fill="none" xmlns="http://www.w3.org/2000/svg">
<path d="M26.2022 5.77723L26.1419 5.70558L25.9327 5.88218L26.2061 5.8709L26.2022 5.77723ZM40.6196 12.8076L40.5889 12.8962L40.8682 12.9926L40.6956 12.7527L40.6196 12.8076ZM55.9732 5.12099L55.929 5.20374L55.981 5.23142L56.0286 5.19647L55.9732 5.12099ZM85.9314 5.77723L85.9366 5.87082L86.2253 5.85477L85.9819 5.69834L85.9314 5.77723ZM71.9821 12.8076L71.8933 12.7775L71.8241 12.9827L72.021 12.8929L71.9821 12.8076ZM96.8849 29.118L96.7939 29.0957L96.78 29.1527L96.8249 29.19L96.8849 29.118ZM112.051 57.4269L111.975 57.4816L112.118 57.6803L112.144 57.4374L112.051 57.4269ZM95.5742 47.9593L95.5731 47.8656L95.3693 47.8678L95.5038 48.0212L95.5742 47.9593ZM69.0799 135.136L69.0387 135.052L69.0379 135.052L69.0799 135.136ZM68.5182 135.417L68.441 135.364L68.5601 135.501L68.5182 135.417ZM73.0119 108.889L73.1033 108.869L72.9183 108.885L73.0119 108.889ZM55.5987 138.885H55.5051V139.085L55.6586 138.957L55.5987 138.885ZM45.5814 113.576L45.4915 113.602L45.4926 113.607L45.4945 113.611L45.5814 113.576ZM69.0799 79.3615L69.1053 79.4519L69.0889 79.2682L69.0799 79.3615ZM57.0966 74.9558L57.1741 74.9034L57.1513 74.8696L57.1108 74.8632L57.0966 74.9558ZM55.8795 74.7684L55.8938 74.6758L55.8518 74.6694L55.8192 74.6968L55.8795 74.7684ZM44.9261 78.9866L44.8504 79.0417L44.8822 79.0859L44.9362 79.0799L44.9261 78.9866ZM40.4323 72.7999L40.451 72.708L40.2147 72.66L40.3567 72.855L40.4323 72.7999ZM47.2665 58.8329H47.1729V58.8982L47.2336 58.9207L47.2665 58.8329ZM47.2665 53.7711L47.2838 53.6792L47.1729 53.6582V53.7711H47.2665ZM64.6798 53.7711H64.7734V53.6477L64.6543 53.6807L64.6798 53.7711ZM64.6798 58.8329L64.7168 58.9192L64.7734 58.8944V58.8329H64.6798ZM73.0119 72.4249L73.0134 72.5187H73.0235L73.0336 72.516L73.0119 72.4249ZM76.3822 53.1149L76.2998 53.0703L76.2751 53.1157L76.3002 53.1607L76.3822 53.1149ZM82.1866 42.4288L82.2686 42.4738L82.2836 42.4464L82.2791 42.4157L82.1866 42.4288ZM56.4412 23.8687L56.5012 23.9407L56.5068 23.9358L56.5117 23.9302L56.4412 23.8687ZM55.8795 24.3374L55.802 24.3899L55.8597 24.4757L55.9394 24.4094L55.8795 24.3374ZM30.1342 42.4288L30.0434 42.4063L30.0344 42.4419L30.0522 42.4742L30.1342 42.4288ZM35.5641 52.2713L35.6426 52.3226L35.6733 52.2754L35.6461 52.2259L35.5641 52.2713ZM37.4365 70.7376L37.4612 70.828L37.6222 70.7838L37.5005 70.6694L37.4365 70.7376ZM15.1551 112.076L15.0793 112.131L15.2469 112.058L15.1551 112.076ZM16.8402 47.9593L16.9102 48.0216L17.0837 47.8266L16.8258 47.8667L16.8402 47.9593ZM0.269563 57.8018L0.176025 57.7981L0.350671 57.8487L0.269563 57.8018ZM15.2487 30.1491L15.2942 30.2311L15.3643 30.1921L15.3365 30.1167L15.2487 30.1491ZM25.4352 32.6394L25.3676 32.7042L25.4863 32.8282L25.5262 32.6613L25.4352 32.6394ZM34.0574 18.7358L34.1203 18.8052L34.227 18.7083L34.095 18.65L34.0574 18.7358ZM78.161 19.01L78.1333 18.9204L77.9696 18.9707L78.1003 19.0816L78.161 19.01ZM86.6803 32.977L86.5901 33.0019L86.6283 33.1411L86.7399 33.0494L86.6803 32.977ZM26.2061 5.8709C33.4281 5.5727 38.7753 10.4086 40.5435 12.8624L40.6956 12.7527C38.9063 10.2698 33.5062 5.38185 26.1984 5.68357L26.2061 5.8709ZM56.017 5.0382C41.7497 -2.55563 30.1625 2.3089 26.1419 5.70558L26.2626 5.84889C30.2308 2.49637 41.7363 -2.35047 55.929 5.20374L56.017 5.0382ZM85.9819 5.69834C72.7606 -2.80115 60.4351 1.71594 55.9177 5.04548L56.0286 5.19647C60.4987 1.90194 72.7389 -2.59217 85.8808 5.85612L85.9819 5.69834ZM72.0708 12.8376C72.9183 10.3283 75.3891 8.63935 78.1625 7.5494C80.9317 6.46099 83.9781 5.97974 85.9366 5.87082L85.9261 5.68364C83.9526 5.79339 80.8857 6.27764 78.0939 7.3749C75.3059 8.47062 72.7681 10.1875 71.8933 12.7775L72.0708 12.8376ZM96.9759 29.1403C98.2199 24.0404 97.8162 20.2114 96.364 17.4002C94.9114 14.5884 92.417 12.8088 89.508 11.7934C83.6965 9.76488 76.2054 10.7768 71.9431 12.7223L72.021 12.8929C76.247 10.9638 83.6879 9.96045 89.4462 11.9705C92.3226 12.9744 94.7724 14.7276 96.1973 17.4863C97.623 20.2455 98.0308 24.025 96.7939 29.0957L96.9759 29.1403ZM112.144 57.4374C112.784 51.6691 110.376 45.7336 107.119 40.665C103.861 35.5947 99.744 31.379 96.9448 29.046L96.8249 29.19C99.6114 31.5126 103.715 35.7145 106.962 40.7666C110.21 45.8202 112.591 51.7111 111.958 57.4167L112.144 57.4374ZM95.5749 48.0531C99.4062 48.0159 102.938 49.5757 105.798 51.5472C108.659 53.5184 110.842 55.8963 111.975 57.4816L112.127 57.3725C110.982 55.7707 108.784 53.377 105.905 51.3928C103.025 49.4085 99.456 47.8281 95.5731 47.8656L95.5749 48.0531ZM69.1211 135.22C94.2369 122.881 104.51 105.209 106.679 88.5366C108.847 71.8715 102.918 56.2139 95.6446 47.8978L95.5038 48.0212C102.741 56.2964 108.655 71.9004 106.494 88.5122C104.333 105.117 94.1029 122.738 69.0387 135.052L69.1211 135.22ZM68.5601 135.501L69.1218 135.22L69.0379 135.052L68.4762 135.333L68.5601 135.501ZM72.9205 108.909C75.6096 121.027 71.0515 131.599 68.441 135.364L68.5949 135.47C71.2275 131.673 75.8063 121.048 73.1033 108.869L72.9205 108.909ZM55.6586 138.957C69.011 127.841 72.8546 114.293 73.1055 108.893L72.9183 108.885C72.67 114.234 68.8492 127.732 55.5388 138.813L55.6586 138.957ZM49.1382 121.527C50.6694 124.695 52.2621 127.989 53.472 131.018C54.6827 134.049 55.5051 136.8 55.5051 138.885H55.6923C55.6923 136.761 54.8572 133.981 53.6458 130.948C52.4328 127.913 50.8376 124.612 49.3067 121.445L49.1382 121.527ZM45.4945 113.611C46.4457 115.957 47.7676 118.692 49.1382 121.527L49.3067 121.445C47.9354 118.608 46.6164 115.88 45.6679 113.541L45.4945 113.611ZM69.0544 79.2715C56.7113 82.765 50.2043 89.21 47.0928 95.8571C43.9831 102.5 44.2688 109.334 45.4915 113.602L45.6713 113.55C44.4595 109.319 44.1745 102.533 47.2624 95.9366C50.3481 89.345 56.8079 82.9326 69.1053 79.4519L69.0544 79.2715ZM57.0191 75.0083C57.4991 75.72 58.296 76.3315 59.2622 76.8535C60.2298 77.3762 61.3742 77.813 62.558 78.1718C64.925 78.8895 67.4588 79.2982 69.0709 79.4549L69.0889 79.2682C67.4865 79.1126 64.9651 78.7057 62.6123 77.9922C61.4357 77.6356 60.304 77.2033 59.3513 76.6885C58.3971 76.1729 57.6302 75.5794 57.1741 74.9034L57.0191 75.0083ZM55.8653 74.861L57.0824 75.0485L57.1108 74.8632L55.8938 74.6758L55.8653 74.861ZM44.9362 79.0799C50.4238 78.4778 54.5539 76.0072 55.9398 74.8404L55.8192 74.6968C54.4591 75.8419 50.3631 78.2959 44.9159 78.8936L44.9362 79.0799ZM40.3567 72.855L44.8504 79.0417L45.0017 78.9315L40.508 72.7448L40.3567 72.855ZM47.2336 58.9207C50.4226 60.116 52.1726 61.6983 52.8713 63.3533C53.569 65.0054 53.2294 66.7527 52.1906 68.3023C50.1081 71.4077 45.2361 73.6851 40.451 72.708L40.4136 72.8917C45.2709 73.8835 50.22 71.5772 52.346 68.4066C53.411 66.8183 53.772 65.0046 53.044 63.2802C52.3171 61.5592 50.5136 59.9499 47.2991 58.7452L47.2336 58.9207ZM47.1729 53.7711V58.8329H47.3602V53.7711H47.1729ZM64.6543 53.6807C61.8596 54.4644 58.3837 54.629 55.1688 54.5142C51.9558 54.3995 49.0112 54.0062 47.2838 53.6792L47.2489 53.8633C48.9854 54.1921 51.9393 54.5866 55.1624 54.7013C58.384 54.8164 61.8828 54.6526 64.7048 53.8614L64.6543 53.6807ZM64.7734 58.8329V53.7711H64.5861V58.8329H64.7734ZM73.0104 72.3312C68.5054 72.4062 65.2995 71.7883 63.1343 70.7778C60.9706 69.7684 59.8501 68.3702 59.5 66.8801C59.1495 65.3875 59.5674 63.7834 60.5197 62.356C61.4716 60.9289 62.9538 59.6856 64.7168 58.9192L64.6423 58.7471C62.8482 59.5273 61.3368 60.7935 60.3639 62.2517C59.391 63.7099 58.9521 65.3668 59.3176 66.9229C59.6839 68.4816 60.8526 69.9202 63.0549 70.9476C65.2557 71.9746 68.4931 72.594 73.0134 72.5187L73.0104 72.3312ZM76.3002 53.1607C79.5862 59.0676 79.7184 63.6319 78.5549 66.8295C77.3903 70.0309 74.924 71.873 72.9902 72.3338L73.0336 72.516C75.0318 72.0398 77.5461 70.1508 78.7309 66.8936C79.9176 63.6327 79.769 59.011 76.4638 53.0695L76.3002 53.1607ZM82.1042 42.3842L76.2998 53.0703L76.4642 53.1599L82.2686 42.4738L82.1042 42.3842ZM56.5117 23.9302C59.6595 20.3113 62.7179 18.9315 65.5545 19.0587C68.395 19.186 71.0388 20.825 73.353 23.3001C77.9831 28.2511 81.2534 36.5042 82.0937 42.4419L82.2791 42.4157C81.4346 36.4487 78.1516 28.157 73.4897 23.1718C71.1582 20.6788 68.4717 19.0018 65.5632 18.8714C62.6508 18.7408 59.5419 20.1614 56.3705 23.8072L56.5117 23.9302ZM55.9394 24.4094L56.5012 23.9407L56.3813 23.7967L55.8196 24.2654L55.9394 24.4094ZM30.225 42.4517C33.9215 27.6469 39.1999 21.4649 44.0898 19.8096C48.9742 18.1563 53.5222 21.0048 55.802 24.3899L55.9571 24.2849C53.6495 20.8584 49.0225 17.942 44.0299 19.6319C39.0434 21.32 33.7428 27.5893 30.0434 42.4063L30.225 42.4517ZM35.6461 52.2259L30.2162 42.3834L30.0522 42.4742L35.4821 52.3166L35.6461 52.2259ZM37.5005 70.6694C34.0776 67.4512 33.0559 63.726 33.1674 60.3747C33.279 57.0193 34.527 54.0388 35.6426 52.3226L35.4857 52.2203C34.3544 53.9604 33.0933 56.9739 32.9802 60.3684C32.8671 63.7665 33.905 67.5464 37.3725 70.8059L37.5005 70.6694ZM15.2469 112.058C12.5931 98.7349 15.7474 89.0915 20.7604 82.4481C25.776 75.8014 32.657 72.1512 37.4612 70.828L37.4118 70.6473C32.5733 71.9799 25.6549 75.651 20.611 82.3353C15.5645 89.0229 12.3995 98.721 15.0633 112.094L15.2469 112.058ZM16.7703 47.8971C6.15235 59.8434 3.6584 73.041 4.85509 84.6813C6.05143 96.3191 10.9362 106.402 15.0793 112.131L15.2309 112.021C11.1043 106.315 6.23384 96.2625 5.04135 84.6622C3.84913 73.0653 6.33262 59.9225 16.9102 48.0216L16.7703 47.8971ZM0.350671 57.8487C2.17275 54.6841 5.29866 52.3901 8.47486 50.8086C11.6502 49.2274 14.8662 48.3632 16.8547 48.0519L16.8258 47.8667C14.8198 48.1805 11.5854 49.0504 8.39151 50.6406C5.19844 52.2308 2.03626 54.5457 0.188454 57.7549L0.350671 57.8487ZM15.2031 30.0672C9.52452 33.2301 5.83854 38.515 3.5376 43.8281C1.23663 49.1412 0.316904 54.491 0.176025 57.7981L0.363096 57.8059C0.50308 54.5199 1.41829 49.1929 3.70937 43.9027C6.00043 38.6125 9.66357 33.3673 15.2942 30.2311L15.2031 30.0672ZM40.6499 12.7189C28.415 8.49458 21.2283 10.6662 17.5063 15.0198C13.7928 19.3636 13.5606 25.8462 15.1609 30.1816L15.3365 30.1167C13.7537 25.8282 13.9896 19.4218 17.6486 15.1417C21.2993 10.8714 28.3897 8.68419 40.5889 12.8962L40.6499 12.7189ZM25.5262 32.6613C26.1426 30.0886 28.7265 23.7039 34.1203 18.8052L33.9945 18.6663C28.5674 23.5953 25.9674 30.016 25.3442 32.6176L25.5262 32.6613ZM34.095 18.65C32.3578 17.8825 30.2514 17.6498 28.2434 17.9115C26.2359 18.1732 24.318 18.9305 22.962 20.1531C21.6032 21.3784 20.8108 23.0699 21.0615 25.1846C21.3117 27.2942 22.5982 29.813 25.3676 32.7042L25.5028 32.5745C22.748 29.6984 21.4909 27.2159 21.2474 25.1625C21.0046 23.1141 21.7691 21.481 23.0873 20.2924C24.4082 19.1013 26.2875 18.3555 28.2676 18.0974C30.2473 17.8394 32.3185 18.0701 34.0196 18.8215L34.095 18.65ZM78.1003 19.0816C80.1176 20.7905 84.6488 25.9746 86.5901 33.0019L86.7706 32.9519C84.8173 25.8812 80.261 20.6666 78.2213 18.9385L78.1003 19.0816ZM86.7399 33.0494C88.206 31.8415 89.362 30.0627 90.0319 28.1497C90.7022 26.2369 90.8902 24.1812 90.4101 22.4184C89.9289 20.6522 88.777 19.1823 86.7781 18.4547C84.784 17.7288 81.9585 17.7456 78.1333 18.9204L78.1883 19.0996C81.9934 17.931 84.7731 17.9244 86.714 18.6309C88.6501 19.3357 89.7627 20.7541 90.2293 22.4679C90.697 24.1851 90.5165 26.2011 89.8555 28.0876C89.1946 29.9738 88.0565 31.722 86.6208 32.9046L86.7399 33.0494Z" fill="white"/>
</svg>
